<?xml version="1.0" standalone="no"?>
<!DOCTYPE svg PUBLIC "-//W3C//DTD SVG 20010904//EN"
 "http://www.w3.org/TR/2001/REC-SVG-20010904/DTD/svg10.dtd">
<svg version="1.0" xmlns="http://www.w3.org/2000/svg"
 width="308.000000pt" height="308.000000pt" viewBox="0 0 308.000000 308.000000"
 preserveAspectRatio="xMidYMid meet">
<metadata>
Created by potrace 1.14, written by Peter Selinger 2001-2017
</metadata>
<g transform="translate(0.000000,308.000000) scale(0.100000,-0.100000)"
fill="#000000" stroke="none">
<path d="M1506 3063 c-2 -3 -51 -7 -108 -8 -103 -4 -182 -11 -225 -20 -13 -3
-33 -7 -45 -10 -13 -3 -50 -18 -83 -34 -33 -16 -71 -32 -85 -36 -14 -4 -49
-18 -78 -32 l-52 -25 -58 38 c-49 33 -67 39 -123 42 -65 4 -67 4 -102 -33 -20
-21 -45 -61 -56 -90 -24 -64 -55 -221 -47 -241 3 -9 -14 -35 -44 -67 -155
-161 -304 -457 -355 -704 -30 -144 -38 -312 -22 -478 24 -244 127 -517 272
-720 106 -149 309 -338 455 -424 78 -45 262 -131 305 -141 6 -1 15 -4 20 -6
30 -10 216 -54 250 -59 95 -14 277 -17 375 -6 358 41 676 195 925 446 50 50
95 98 100 106 6 8 24 32 41 54 40 52 64 98 64 126 0 12 13 43 29 68 46 72 68
128 90 233 11 54 27 110 34 125 15 29 24 69 33 138 3 22 12 84 21 137 11 69
14 143 11 250 l-4 153 -58 175 c-32 96 -74 204 -94 240 -69 127 -190 284 -290
378 l-35 32 21 88 c34 138 28 182 -26 182 -35 0 -61 -16 -124 -78 l-57 -55
-63 41 c-98 65 -195 110 -288 133 -47 11 -116 29 -155 39 -38 11 -97 22 -131
24 -34 3 -72 7 -85 11 -34 8 -147 14 -153 8z"/>
</g>
</svg>
